/* XPM */
static char * pd_xpm[] = {
"32 32 8 1",
" 	c None",
".	c #000000",
"+	c #3B3B4B",
"@	c #007900",
"#	c #007300",
"$	c #30303C",
"%	c #FFFFFF",
"&	c #070707",
"...........                   ++",
".@@..@..@@.                  +++",
".@.@@@@@.@.                  ++ ",
"..@@@@@@@..                 +++ ",
"..@@@@@@@..                 ++  ",
".#@@@@@@@@.                ++$  ",
"..@@@@@@@..               +++   ",
"..@@@@@@@..               ++    ",
".@.@@@@@.@.              +++    ",
".@@..@..@@.             +++     ",
"...........             ++      ",
"     .                 +++      ",
"..........%%%%%%%%%%+++++++++   ",
".%%%%%%%%.%%%%%%%%%%+++++++++   ",
".%%%%%%%%.%%%%%%%%%%+++++++++   ",
"..........%%%%%%%%%%%%%%%%%%%   ",
"%%%%%%%%%%%%%%%%%.%%%%%%%%%%%   ",
"%%......%%%%%%%%%.%%%%%%%%%%%   ",
"%%.%%%%..%%%%%%%%.%%%%%%%%%%%   ",
"%%.%%%%%.%%%%...%.%%%%%%%%%%%   ",
"%%.%%%%%.%%%..%...%%%%%%%%%%%   ",
"%%.%%%%..%%..%%%%.%%%%%%%%%%%   ",
"%%......%%%.%%%%%.%%%%%%%%%%%   ",
"%%....&%%%%.%%%%%.%%%%%%%%%%%   ",
"%%.%%%%%%%%.%%%%%.%%%%%%%%%%%   ",
"%%.%%%%%%%%.%%%%%.%%%%%%%%%%%   ",
"%%.%%%%%%%%..%%%..%%%%%%%%%%%   ",
"%%.%%%%%%%%%......%%%%%%%%%%%   ",
"%%%%%%%%%%%%%%%%%%%%%%%%%%%%%   ",
"++++++++++%%%%%%%%%%%%%%%%%%%   ",
"++++++++++%%%%%%%%%%%%%%%%%%%   ",
"++++++++++%%%%%%%%%%%%%%%%%%%   "};
