/* XPM */
static char * pd_xpm[] = {
"32 32 5 1",
" 	c None",
".	c #000000",
"+	c #3B3B4B",
"@	c #007900",
"%	c #FFFFFF",
"...........                   ++",
".@@..@..@@.                  +++",
".@.@@@@@.@.                  ++ ",
"..@@@@@@@..                 +++ ",
"..@@@@@@@..                 ++  ",
".@@@@@@@@@.                +++  ",
"..@@@@@@@..               +++   ",
"..@@@@@@@..               ++    ",
".@.@@@@@.@.              +++    ",
".@@..@..@@.             +++     ",
"...........             ++      ",
"     .                 +++      ",
"..........%%%%%%%%%%+++++++++   ",
".%%%%%%%%.%%%%%%%%%%+++++++++   ",
".%%%%%%%%.%%%%%%%%%%+++++++++   ",
"..........%%%%%%%%%%%%%%%%%%%   ",
"%%%%%%%%%%%%%%%%%.%%%%%%%%%%%   ",
"%%......%%%%%%%%%.%%%%%%%%%%%   ",
"%%.%%%%..%%%%%%%%.%%%%%%%%%%%   ",
"%%.%%%%%.%%%%...%.%%%%%%%%%%%   ",
"%%.%%%%%.%%%..%...%%%%%%%%%%%   ",
"%%.%%%%..%%..%%%%.%%%%%%%%%%%   ",
"%%......%%%.%%%%%.%%%%%%%%%%%   ",
"%%.....%%%%.%%%%%.%%%%%%%%%%%   ",
"%%.%%%%%%%%.%%%%%.%%%%%%%%%%%   ",
"%%.%%%%%%%%.%%%%%.%%%%%%%%%%%   ",
"%%.%%%%%%%%..%%%..%%%%%%%%%%%   ",
"%%.%%%%%%%%%......%%%%%%%%%%%   ",
"%%%%%%%%%%%%%%%%%%%%%%%%%%%%%   ",
"++++++++++%%%%%%%%%%%%%%%%%%%   ",
"++++++++++%%%%%%%%%%%%%%%%%%%   ",
"++++++++++%%%%%%%%%%%%%%%%%%%   "};
